{"asset":{"version":"2.0","generator":"THREE.GLTFExporter"},"scenes":[{"nodes":[0],"name":"AuxScene"}],"scene":0,"nodes":[{"mesh":0}],"bufferViews":[{"buffer":0,"byteOffset":0,"byteLength":3276,"target":34962,"byteStride":12},{"buffer":0,"byteOffset":3276,"byteLength":3276,"target":34962,"byteStride":12}],"buffers":[{"byteLength":6552,"uri":"data:application/octet-stream;base64,"}],"accessors":[{"bufferView":0,"componentType":5126,"count":273,"max":[9.700000762939453,5.1839752197265625,9.700000762939453],"min":[-9.699999809265137,0.1839749962091446,-9.699999809265137],"type":"VEC3"},{"bufferView":1,"componentType":5126,"count":273,"max":[0.19583970308303833,1,0.9527871012687683],"min":[-0.7026549577713013,0.2977427542209625,-0.032530322670936584],"type":"VEC3"}],"materials":[{"pbrMetallicRoughness":{"baseColorFactor":[0.5019607843137255,0.5019607843137255,0.5019607843137255,1],"metallicFactor":0,"roughnessFactor":1}}],"meshes":[{"primitives":[{"mode":4,"attributes":{"POSITION":0,"NORMAL":1},"material":0}]}]}